<svg width="60" height="60" viewBox="0 0 60 60" fill="none" xmlns="http://www.w3.org/2000/svg">
<g clip-path="url(#clip0_20017_32918)">
<path d="M30.0156 59.1716C46.1655 59.1716 59.2575 46.0793 59.2575 29.9294C59.2575 13.7795 46.1655 0.6875 30.0156 0.6875C13.8657 0.6875 0.773438 13.7795 0.773438 29.9294C0.773438 46.0793 13.8654 59.1716 30.0156 59.1716Z" fill="white"/>
<path d="M32.7806 3.0296C15.6416 1.3175 1.2938 15.665 3.0062 32.804C4.2746 45.4916 14.5355 55.7528 27.2234 57.0212C44.3624 58.7333 58.7099 44.3858 56.996 27.2468C55.7276 14.5592 45.4664 4.298 32.7788 3.0296H32.7806Z" fill="#A51E2F"/>
<path d="M32.4465 59.9026C13.9833 61.3729 -1.37277 46.0168 0.0975326 27.5554C1.25583 13.0255 13.0254 1.25587 27.5535 0.0975691C46.0167 -1.37303 61.3728 13.9834 59.9025 32.4466C58.7442 46.9747 46.9746 58.7461 32.4447 59.9026H32.4465ZM32.3439 1.35157C14.6562 -0.0575309 -0.0575674 14.6545 1.35153 32.344C2.46123 46.264 13.7361 57.5407 27.6561 58.6504C45.3456 60.0595 60.0576 45.3475 58.6485 27.658C57.5406 13.738 46.2639 2.46127 32.3439 1.35157Z" fill="#E0B643"/>
<path d="M27.1779 6.89663C24.7872 6.89663 22.041 7.89983 20.0637 10.2128C16.2945 14.6243 19.0659 18.5756 19.0659 18.5756L22.9107 25.1378C22.9107 25.1378 25.6497 30.347 22.1205 33.7985C20.7456 35.1428 19.0803 35.7236 17.4474 35.7236C17.1948 35.7236 16.9422 35.7092 16.6914 35.6822C14.3856 35.4314 12.4422 34.0295 11.3526 32.0699C10.2069 30.2207 9.66573 25.3814 12.3792 23.0198C13.4274 22.1069 14.4522 21.6881 15.3834 21.6881C16.8594 21.6881 18.0969 22.7399 18.8151 24.5354C19.7859 26.9621 18.909 28.9973 18.4344 29.6468C18.3477 29.7659 18.3732 29.93 18.4866 30.0203C18.537 30.0599 18.5967 30.0797 18.6561 30.0797C18.7227 30.0797 18.7878 30.0563 18.84 30.0077C19.6266 29.2751 22.6632 25.4411 19.8828 22.1282C18.8976 20.9537 17.586 20.4305 16.1769 20.4305C13.5534 20.4305 10.5927 22.2491 8.77563 25.0694C5.40333 30.3071 9.38913 37.0517 15.4209 37.0517C15.6843 37.0517 15.9531 37.0391 16.2237 37.0118C18.3039 36.8081 20.4348 36.1676 22.212 35.2364C26.784 32.8439 29.1711 29.7677 29.1711 26.1608C29.1711 22.5539 25.7664 17.8286 25.7664 17.8286C25.7664 17.8286 21.2016 11.8691 23.7618 9.14273C24.6009 8.24963 25.5444 7.86713 26.4339 7.86713C28.2597 7.86713 29.8584 9.47843 29.8584 11.5838C29.8584 13.6892 28.0236 15.1526 26.7495 15.9629C26.5746 16.0748 26.6682 16.3292 26.8524 16.3292C26.8722 16.3292 26.892 16.3256 26.9139 16.3202C28.6983 15.7934 31.7295 14.4437 32.2725 11.1563C32.7057 8.52923 30.2319 6.89453 27.1791 6.89453L27.1773 6.89633L27.1779 6.89663Z" fill="white"/>
<path d="M51.253 18.8595C51.2854 17.5371 50.7367 16.2468 48.6097 15.9852C48.4165 15.9618 48.2125 15.9492 47.9998 15.9492C43.0687 15.9492 32.9467 22.1937 29.0386 31.0005C24.961 40.188 27.1765 44.2713 31.6114 44.2713C36.5425 44.2713 40.9576 40.5669 43.4746 35.3436C43.4746 35.3436 40.1113 47.7084 35.2867 50.6637C34.132 51.3711 33.1684 51.6453 32.407 51.6453C30.1606 51.6453 29.6737 49.2582 31.2199 48.5364L31.1965 48.5202C30.8122 48.2496 30.3664 48.1161 29.9227 48.1161C29.329 48.1161 28.741 48.3561 28.3204 48.8253C27.6475 49.5741 27.3586 50.6673 28.27 51.6453C28.9195 52.3416 30.2563 52.9083 31.9687 52.9083C34.4062 52.9083 37.6051 51.7608 40.6708 48.21C45.784 42.2865 49.0678 31.0944 49.582 28.7163C49.6183 28.5504 49.4884 28.4061 49.3312 28.4061C49.3024 28.4061 49.2718 28.4115 49.243 28.4223L39.157 32.0562C38.98 32.1282 39.0325 32.6226 39.2236 32.6226H43.5358C43.3429 33.2325 41.0911 39.2823 35.3698 39.2823C29.0059 39.2823 31.0648 29.7972 36.889 23.7834C42.7132 17.7696 46.1665 17.6199 46.1665 17.6199C49.7896 17.6199 46.6879 23.4027 46.5508 23.6607L48.4165 22.8C50.0602 22.1721 51.2077 20.6187 51.2512 18.8595H51.253Z" fill="white"/>
<path d="M57.168 54.7837C57.168 55.9954 56.1651 56.9815 54.918 56.9815C53.6709 56.9815 52.668 55.9954 52.668 54.7837C52.668 53.572 53.6706 52.5859 54.918 52.5859C56.1654 52.5859 57.168 53.5723 57.168 54.7837ZM53.2035 54.7837C53.2035 55.7866 53.9838 56.6023 54.918 56.6023C55.8522 56.6023 56.6322 55.7893 56.6322 54.7837C56.6322 53.7781 55.8519 52.9651 54.918 52.9651C53.9841 52.9651 53.2035 53.7619 53.2035 54.7837ZM54.1899 54.2809C54.1899 54.0556 54.1377 53.9512 54.0003 53.9347H53.9316C53.8959 53.8663 53.8959 53.7619 53.9481 53.7454C54.3108 53.7289 54.624 53.7097 54.918 53.7097C55.2999 53.7097 55.7832 53.7976 55.7832 54.2974C55.7832 54.5392 55.6101 54.7123 55.473 54.781C55.437 54.7975 55.437 54.8332 55.473 54.9019C55.6458 55.2646 55.7832 55.5091 55.9068 55.5943C55.9755 55.6465 56.0112 55.6822 56.0634 55.6987C56.0991 55.6987 56.0991 55.8031 56.0634 55.8196C55.9755 55.8361 55.9068 55.8361 55.8219 55.8361C55.5444 55.8361 55.3383 55.7317 55.1817 55.4734L54.9399 55.0393C54.9042 54.9706 54.852 54.9349 54.7833 54.9349C54.6981 54.9349 54.6789 54.9871 54.6789 55.0201V55.2619C54.6789 55.5229 54.6789 55.5913 54.9207 55.6243L54.9729 55.6408C55.0086 55.6573 55.0086 55.7974 54.9729 55.8139C54.7998 55.8139 54.6624 55.7974 54.4536 55.7974C54.264 55.7974 54.1074 55.8139 53.9508 55.8139C53.8986 55.7974 53.8986 55.6573 53.9343 55.6408L54.003 55.6243C54.1926 55.5721 54.1926 55.5391 54.1926 55.2619V54.2809H54.1899ZM54.6735 54.6106C54.6735 54.7315 54.69 54.7315 54.8823 54.7315C55.1598 54.7315 55.2285 54.5227 55.2285 54.3853C55.2285 54.1078 55.0911 53.9512 54.8988 53.9512C54.69 53.9512 54.6735 53.9869 54.6735 54.0886V54.6106Z" fill="white"/>
</g>
<defs>
<clipPath id="clip0_20017_32918">
<rect width="60" height="60" fill="white"/>
</clipPath>
</defs>
</svg>
