<svg xmlns="http://www.w3.org/2000/svg" width="252" height="60" viewBox="0 0 252 60" fill="none">
  <g clip-path="url(#clip0_19930_13)">
    <path d="M30.0154 58.7924C46.1656 58.7924 59.2574 45.7006 59.2574 29.5505C59.2574 13.4003 46.1656 0.308472 30.0154 0.308472C13.8653 0.308472 0.773438 13.4003 0.773438 29.5505C0.773438 45.7006 13.8653 58.7924 30.0154 58.7924Z" fill="white"/>
    <path d="M32.7803 2.65104C15.6413 0.939457 1.29451 15.2873 3.00609 32.4263C4.27415 45.1139 14.5356 55.3753 27.2232 56.6434C44.3622 58.356 58.71 44.0081 56.9954 26.8692C55.7273 14.1815 45.4659 3.9201 32.7783 2.65204H32.7803V2.65104Z" fill="#A6192E"/>
    <path d="M32.4462 59.5222C13.9827 60.9929 -1.37309 45.636 0.097581 27.1756C1.25577 12.6453 13.0251 0.875942 27.5534 -0.282246C46.0169 -1.75291 61.3727 13.6039 59.902 32.0664C58.7438 46.5946 46.9745 58.365 32.4442 59.5222H32.4462ZM32.3434 0.971702C14.6561 -0.437478 -0.0576505 14.2742 1.35153 31.9636C2.46133 45.884 13.7358 57.1605 27.6562 58.2703C45.3456 59.6794 60.0573 44.9677 58.6481 27.2784C57.5403 13.358 46.2638 2.08151 32.3434 0.971702Z" fill="#E1B744"/>
    <path d="M27.1784 6.51468C24.7874 6.51468 22.0416 7.51764 20.0639 9.83099C16.295 14.242 19.066 18.1943 19.066 18.1943L22.9105 24.7564C22.9105 24.7564 25.6492 29.9657 22.1202 33.4171C20.7453 34.7618 19.0801 35.3424 17.4472 35.3424C17.1941 35.3424 16.9421 35.3283 16.6912 35.3011C14.3849 35.0501 12.4424 33.6479 11.3518 31.6884C10.2057 29.8387 9.66441 25.0003 12.3789 22.6386C13.4273 21.7254 14.4524 21.307 15.3828 21.307C16.8585 21.307 18.0963 22.3594 18.814 24.1546C19.7847 26.5819 18.9077 28.617 18.433 29.2662C18.3463 29.3851 18.3715 29.5494 18.4854 29.6401C18.5358 29.6795 18.5953 29.6996 18.6547 29.6996C18.7213 29.6996 18.7868 29.6764 18.8392 29.627C19.6254 28.8942 22.6625 25.0608 19.8825 21.7475C18.8977 20.5732 17.5852 20.0501 16.1761 20.0501C13.5523 20.0501 10.5918 21.8685 8.77535 24.6889C5.40361 29.9264 9.38922 36.6709 15.4201 36.6709C15.6832 36.6709 15.9523 36.6578 16.2234 36.6316C18.3039 36.428 20.4349 35.7869 22.212 34.8565C26.7842 32.4635 29.1712 29.3881 29.1712 25.7805C29.1712 22.1729 25.7661 17.4484 25.7661 17.4484C25.7661 17.4484 21.2009 11.4891 23.7612 8.76251C24.5999 7.86943 25.5444 7.4874 26.4334 7.4874C28.2589 7.4874 29.8576 9.09818 29.8576 11.2039C29.8576 13.3096 28.0231 14.7732 26.7489 15.5826C26.5736 15.6945 26.6673 15.9485 26.8518 15.9485C26.8719 15.9485 26.8911 15.9445 26.9132 15.9394C28.6974 15.4123 31.7285 14.0626 32.2718 10.7755C32.7052 8.14864 30.2316 6.51367 27.1784 6.51367L27.1763 6.51569L27.1784 6.51468Z" fill="white"/>
    <path d="M51.2526 18.4796C51.2849 17.1571 50.7365 15.8669 48.6096 15.6058C48.4161 15.5826 48.2125 15.5695 47.9998 15.5695C43.0687 15.5695 32.9464 21.8141 29.0384 30.6209C24.961 39.8088 27.1766 43.8912 31.6118 43.8912C36.5429 43.8912 40.9579 40.1868 43.4749 34.9634C43.4749 34.9634 40.1112 47.3285 35.2869 50.2839C34.1318 50.9915 33.1691 51.2657 32.4071 51.2657C30.1603 51.2657 29.6734 48.8788 31.2197 48.157L31.1965 48.1409C30.8125 47.8698 30.3669 47.7367 29.9224 47.7367C29.3287 47.7367 28.741 47.9766 28.3197 48.4453C27.6463 49.1943 27.358 50.288 28.2693 51.2657C28.9184 51.9622 30.256 52.5287 31.9676 52.5287C34.405 52.5287 37.6043 51.3816 40.6697 47.8305C45.7822 41.9075 49.0663 30.7147 49.5803 28.3368C49.6166 28.1705 49.4866 28.0263 49.3294 28.0263C49.3001 28.0263 49.2699 28.0314 49.2406 28.0425L39.1546 31.6763C38.9772 31.7489 39.0296 32.2428 39.2212 32.2428H43.5334C43.3398 32.8526 41.089 38.9026 35.3676 38.9026C29.0041 38.9026 31.0624 29.4174 36.8866 23.4037C42.7108 17.39 46.1642 17.2398 46.1642 17.2398C49.787 17.2398 46.6854 23.0226 46.5483 23.2807L48.4141 22.4199C50.0571 21.7919 51.2052 20.2386 51.2486 18.4796H51.2506H51.2526Z" fill="white"/>
    <path d="M57.1638 54.4036C57.1638 55.6152 56.1608 56.601 54.9139 56.601C53.667 56.601 52.6641 55.6152 52.6641 54.4036C52.6641 53.192 53.667 52.2062 54.9139 52.2062C56.1608 52.2062 57.1638 53.192 57.1638 54.4036ZM53.2003 54.4036C53.2003 55.4066 53.9805 56.222 54.9149 56.222C55.8493 56.222 56.6295 55.4086 56.6295 54.4036C56.6295 53.3986 55.8493 52.5852 54.9149 52.5852C53.9805 52.5852 53.2003 53.3825 53.2003 54.4036ZM54.1861 53.9006C54.1861 53.6748 54.1337 53.571 53.9966 53.5549H53.9281C53.8928 53.4863 53.8928 53.3815 53.9442 53.3654C54.3071 53.3492 54.6196 53.3301 54.9139 53.3301C55.2959 53.3301 55.7798 53.4178 55.7798 53.9178C55.7798 54.1597 55.6064 54.332 55.4693 54.4016C55.434 54.4177 55.434 54.454 55.4693 54.5226C55.6427 54.8854 55.7798 55.1294 55.9028 55.215C55.9713 55.2675 56.0076 55.3027 56.059 55.3189C56.0943 55.3189 56.0943 55.4237 56.059 55.4398C55.9713 55.456 55.9028 55.456 55.8171 55.456C55.5399 55.456 55.3332 55.3511 55.177 55.0931L54.9351 54.6586C54.8998 54.5901 54.8474 54.5548 54.7788 54.5548C54.6932 54.5548 54.674 54.6072 54.674 54.6395V54.8814C54.674 55.1425 54.674 55.211 54.9159 55.2443L54.9683 55.2604C55.0036 55.2765 55.0036 55.4177 54.9683 55.4338C54.795 55.4338 54.6579 55.4177 54.4492 55.4177C54.2597 55.4177 54.1035 55.4338 53.9462 55.4338C53.8938 55.4177 53.8938 55.2775 53.9301 55.2604L53.9986 55.2443C54.1882 55.1919 54.1882 55.1586 54.1882 54.8814V53.9006H54.1851H54.1861ZM54.67 54.2302C54.67 54.3512 54.6861 54.3512 54.8786 54.3512C55.1558 54.3512 55.2244 54.1425 55.2244 54.0054C55.2244 53.7282 55.0873 53.572 54.8948 53.572C54.6861 53.572 54.669 53.6073 54.669 53.7091V54.2312L54.67 54.2302Z" fill="white"/>
    <path d="M76.2668 27.4115C74.7518 27.4115 73.8133 26.9972 73.4676 26.8077C73.1541 26.4589 72.9414 25.3139 72.9414 24.2323C73.0563 24.0256 73.4363 24.0095 73.5674 24.1839C73.897 25.2171 74.9997 26.6787 76.3998 26.6787C77.6175 26.6787 78.178 25.8672 78.178 25.0739C78.178 23.7867 76.927 23.0237 75.9392 22.5469C74.7538 21.9754 73.4525 21.0208 73.4525 19.4483C73.4363 17.6521 74.8848 16.4122 77.2718 16.4122C77.8161 16.4122 78.4894 16.4757 79.1486 16.6673C79.3633 16.7308 79.5105 16.763 79.7091 16.7943C79.8401 17.143 80.0054 18.0028 80.0054 19.0673C79.9238 19.2578 79.5105 19.2739 79.3633 19.1157C79.0831 18.3042 78.3765 17.144 77.1901 17.144C76.1035 17.144 75.5118 17.8265 75.5118 18.6228C75.5118 19.3536 76.1872 20.0209 77.0097 20.4351L78.0963 20.9916C79.1174 21.5167 80.4177 22.438 80.4177 24.1859C80.4177 26.1414 78.7555 27.4135 76.2688 27.4135H76.2668V27.4115Z" fill="white"/>
    <path d="M93.2922 21.8635C93.2922 25.329 90.8891 27.4115 87.349 27.4115C84.0398 27.4115 81.6367 25.3139 81.6367 21.9905C81.6367 18.8435 84.0741 16.4122 87.5143 16.4122C90.9546 16.4122 93.2932 18.6369 93.2932 21.8645L93.2922 21.8635ZM87.3813 17.144C85.3552 17.144 84.2686 18.9715 84.2686 21.6276C84.2686 23.566 84.9762 26.6827 87.6605 26.6827C89.8176 26.6827 90.6583 24.6476 90.6583 22.0731C90.6583 19.3556 89.4225 17.145 87.3813 17.145V17.144Z" fill="white"/>
    <path d="M95.3606 18.9554C95.3606 17.4767 95.2618 17.3809 94.52 17.2388L94.1087 17.1602C93.9776 17.0644 93.9595 16.7156 94.143 16.6199C94.9332 16.6521 95.7558 16.6683 96.546 16.6683C97.3363 16.6683 98.1588 16.6531 98.9491 16.6199C99.0801 16.7156 99.0801 17.0644 98.9491 17.1602L98.554 17.2237C97.8131 17.3507 97.7143 17.4787 97.7143 18.9554V22.6275C97.7143 24.4873 97.929 26.5376 100.431 26.5376C102.539 26.5376 103.18 24.7574 103.18 22.5792V20.6559C103.18 19.3687 103.114 18.1611 102.933 17.7468C102.784 17.4132 102.423 17.3174 101.977 17.2388L101.533 17.1602C101.402 17.0332 101.434 16.7156 101.533 16.6199C102.423 16.6521 103.064 16.6683 103.739 16.6683C104.349 16.6683 104.957 16.6531 105.583 16.6199C105.681 16.7156 105.714 17.0342 105.583 17.1602L105.286 17.2237C104.858 17.3194 104.545 17.4132 104.396 17.7488C104.216 18.1631 104.149 19.3707 104.149 20.6579V22.438C104.149 23.9319 104 25.2987 103.097 26.2694C102.372 27.0174 101.17 27.4145 99.8371 27.4145C98.5852 27.4145 97.4653 27.224 96.5773 26.5245C95.7215 25.842 95.3596 24.6647 95.3596 22.933V18.9594L95.3576 18.9564L95.3606 18.9554Z" fill="white"/>
    <path d="M110.381 17.8607C110.381 17.4787 110.381 17.4001 109.986 17.4001H108.965C107.763 17.4001 107.417 18.0361 106.922 19.1963C106.726 19.2921 106.412 19.2598 106.312 19.0522C106.658 17.9555 106.74 16.9697 106.857 16.3497C106.922 16.3014 107.006 16.2711 107.088 16.2711C107.169 16.2711 107.252 16.2862 107.318 16.3346C107.4 16.6048 107.45 16.6683 108.701 16.6683H114.825C115.912 16.6683 116.158 16.6531 116.307 16.3195C116.372 16.2872 116.422 16.2711 116.521 16.2711C116.621 16.2711 116.736 16.3346 116.767 16.382C116.603 16.9223 116.487 18.2095 116.521 19.1167C116.44 19.2608 115.995 19.2911 115.912 19.1651C115.631 18.148 115.401 17.4011 114.166 17.4011H113.179C112.784 17.4011 112.734 17.4495 112.734 17.8617V24.8713C112.734 26.3501 112.833 26.4761 113.574 26.5718L114.233 26.6505C114.348 26.7462 114.348 27.1111 114.233 27.2069C113.163 27.1746 112.34 27.1585 111.599 27.1585C110.809 27.1585 109.953 27.1736 108.8 27.2069C108.669 27.1111 108.669 26.7462 108.8 26.6505L109.541 26.5718C110.282 26.4932 110.381 26.3491 110.381 24.8713V17.8607Z" fill="white"/>
    <path d="M122.142 22.1195C121.467 22.1195 121.45 22.1346 121.45 22.5801V24.8693C121.45 26.348 121.549 26.4912 122.29 26.5859L122.816 26.6494C122.947 26.7452 122.947 27.1101 122.816 27.2058C121.879 27.1736 121.054 27.1574 120.313 27.1574C119.523 27.1574 118.701 27.1726 117.86 27.2058C117.729 27.1101 117.729 26.7452 117.86 26.6494L118.255 26.601C119.012 26.5053 119.095 26.346 119.095 24.8673V18.9554C119.095 17.4766 119.013 17.3174 118.255 17.2236L117.86 17.1753C117.729 17.0795 117.729 16.7146 117.86 16.6188C118.666 16.6511 119.522 16.6672 120.313 16.6672C121.054 16.6672 121.877 16.6521 122.602 16.6188C122.733 16.7146 122.733 17.0795 122.602 17.1753L122.256 17.2236C121.548 17.3194 121.449 17.4787 121.449 18.9554V20.8C121.449 21.2607 121.466 21.2778 122.141 21.2778H125.565C126.257 21.2778 126.257 21.2627 126.257 20.8V18.9554C126.257 17.4766 126.175 17.3506 125.417 17.2388L124.972 17.1753C124.841 17.0795 124.841 16.7146 124.972 16.6188C125.879 16.6511 126.685 16.6672 127.475 16.6672C128.266 16.6672 129.039 16.6521 129.798 16.6188C129.929 16.7146 129.929 17.0795 129.798 17.1753L129.468 17.2236C128.711 17.3345 128.612 17.4787 128.612 18.9554V24.8673C128.612 26.346 128.711 26.4569 129.468 26.5839L129.863 26.6474C129.994 26.7432 129.994 27.108 129.863 27.2038C129.041 27.1716 128.232 27.1554 127.475 27.1554C126.653 27.1554 125.845 27.1705 125.056 27.2038C124.925 27.108 124.925 26.7432 125.056 26.6474L125.418 26.599C126.175 26.5033 126.258 26.344 126.258 24.8653V22.5761C126.258 22.1316 126.258 22.1154 125.566 22.1154H122.142V22.1185V22.1195Z" fill="white"/>
    <path d="M135.118 20.8C135.118 21.2446 135.134 21.2778 135.578 21.2778H136.714C137.57 21.2778 137.768 21.1669 137.932 20.4039L138.014 20.0067C138.128 19.8797 138.54 19.8797 138.623 20.0219C138.589 20.5299 138.574 21.1034 138.574 21.7072C138.574 22.311 138.59 22.8826 138.623 23.3926C138.542 23.5367 138.128 23.5519 138.014 23.4077L137.932 23.0106C137.768 22.2475 137.57 22.1205 136.714 22.1205H135.578C135.134 22.1205 135.118 22.1356 135.118 22.6134V24.5044C135.118 25.2352 135.183 25.7453 135.382 26.0134C135.596 26.2997 135.908 26.4277 137.109 26.4277C138.542 26.4277 139.101 26.3793 140.007 24.583C140.138 24.4087 140.552 24.4722 140.617 24.6617C140.552 25.4882 140.157 26.7754 139.926 27.2048C139.054 27.1726 137.472 27.1565 136.123 27.1565H133.982C133.191 27.1565 132.385 27.1716 131.149 27.2048C131.018 27.1091 131.018 26.7271 131.149 26.6484L131.923 26.5376C132.664 26.4267 132.763 26.3309 132.763 24.8693V18.9403C132.763 17.4938 132.664 17.398 131.923 17.2549L131.512 17.1763C131.363 17.0805 131.381 16.7156 131.545 16.6199C132.319 16.6521 133.127 16.6683 133.917 16.6683H137.407C138.459 16.6683 139.399 16.6531 139.613 16.6199C139.629 16.8749 139.744 18.018 139.828 19.0844C139.762 19.2588 139.383 19.2911 139.218 19.1479C139.038 18.5915 138.807 18.1147 138.593 17.892C138.28 17.5896 137.787 17.3991 136.98 17.3991H135.664C135.12 17.3991 135.12 17.4313 135.12 18.019V20.801H135.118V20.8Z" fill="white"/>
    <path d="M142.772 19.2427C142.772 17.653 142.738 17.4787 142.047 17.3829L141.603 17.3194C141.437 17.2408 141.437 16.8416 141.636 16.763C142.872 16.6844 144.154 16.6188 145.719 16.6188C147.12 16.6188 148.321 16.8255 148.947 17.1904C149.903 17.7307 150.396 18.525 150.396 19.543C150.396 20.9583 149.409 21.5621 148.65 21.9269C148.485 22.0056 148.485 22.1013 148.568 22.2757C149.655 24.4066 150.33 25.5971 151.12 26.2492C151.549 26.5829 151.976 26.6786 152.223 26.6938C152.372 26.7724 152.372 27.0123 152.289 27.1081C152.024 27.2189 151.498 27.2522 150.988 27.2522C149.473 27.2522 148.519 26.727 147.794 25.584C147.268 24.7423 146.889 23.9631 146.509 23.1194C146.31 22.69 146.048 22.563 145.637 22.563C145.06 22.563 145.027 22.5952 145.027 22.9118V24.8673C145.027 26.3299 145.126 26.4418 145.867 26.5678L146.311 26.6464C146.426 26.725 146.426 27.107 146.311 27.2028C145.439 27.1705 144.68 27.1544 143.892 27.1544C143.104 27.1544 142.345 27.1695 141.489 27.2028C141.358 27.107 141.358 26.725 141.489 26.6464L141.933 26.5678C142.674 26.4408 142.773 26.3299 142.773 24.8673V19.2406H142.771L142.772 19.2427ZM145.027 21.2607C145.027 21.8171 145.076 21.8644 146.048 21.8644C146.641 21.8644 146.988 21.7203 147.3 21.4199C147.58 21.1498 147.892 20.6418 147.892 19.7033C147.892 18.273 147.02 17.3506 145.735 17.3506C145.059 17.3506 145.027 17.399 145.027 18.1621V21.2607Z" fill="white"/>
    <path d="M163.45 24.455C163.45 25.4882 163.45 26.4892 163.484 27.0153C163.369 27.2059 162.908 27.3813 162.513 27.3813C162.497 27.3813 161.952 26.5698 161.18 25.6495L157.377 21.1024C156.422 19.9735 155.879 19.3062 155.583 19.0673C155.501 19.2266 155.501 19.4967 155.501 20.0834V23.1668C155.501 24.454 155.567 25.6465 155.748 26.0759C155.897 26.4095 156.274 26.5204 156.704 26.5839L157.164 26.6474C157.295 26.7744 157.263 27.1081 157.164 27.2038C156.274 27.1716 155.617 27.1555 154.958 27.1555C154.348 27.1555 153.74 27.1706 153.115 27.2038C153.016 27.1081 152.984 26.7744 153.115 26.6474L153.395 26.599C153.84 26.5204 154.17 26.4095 154.302 26.0739C154.482 25.6445 154.533 24.453 154.533 23.1648V19.1278C154.533 18.2538 154.516 17.9988 154.418 17.776C154.287 17.5059 154.056 17.3154 153.48 17.2358L153.02 17.1723C152.905 17.0453 152.921 16.6642 153.085 16.6158C153.859 16.6481 154.683 16.6642 155.357 16.6642C155.917 16.6642 156.394 16.6491 156.74 16.6158C156.904 17.3315 157.976 18.5391 159.457 20.2406L160.84 21.8151C161.564 22.6416 162.041 23.1981 162.42 23.564C162.486 23.4047 162.486 23.1346 162.486 22.8483V20.6549C162.486 19.3677 162.42 18.1752 162.239 17.7458C162.089 17.4122 161.729 17.3013 161.284 17.2378L160.84 17.1743C160.709 17.0473 160.741 16.7136 160.84 16.6179C161.73 16.6501 162.371 16.6662 163.046 16.6662C163.656 16.6662 164.248 16.6511 164.89 16.6179C164.988 16.7136 165.021 17.0473 164.89 17.1743L164.593 17.2227C164.166 17.2862 163.852 17.4132 163.703 17.7478C163.523 18.1772 163.456 19.3697 163.456 20.6569V24.456L163.453 24.454L163.45 24.455Z" fill="white"/>
    <path d="M180.558 25.3622C180.558 26.0295 180.591 26.348 180.904 26.4115C180.969 26.475 180.953 26.7452 180.855 26.7936C180.574 26.8419 180.147 26.8893 179.702 27.0314C179.126 27.2058 177.711 27.4135 176.788 27.4135C175.668 27.4135 174.715 27.3026 173.545 26.8571C171.618 26.1091 170.301 24.3451 170.301 22.057C170.301 20.0702 171.223 18.3213 173.199 17.2569C174.319 16.6682 175.652 16.4152 177.051 16.4152C178.879 16.4152 179.784 16.7973 180.311 16.7973C180.361 17.275 180.377 18.3869 180.542 19.3576C180.477 19.5319 180.032 19.5481 179.916 19.3898C179.39 17.896 178.353 17.148 176.822 17.148C174.204 17.148 172.936 19.2457 172.936 21.7576C172.936 24.0306 173.742 25.3824 174.813 26.0819C175.603 26.5899 176.459 26.6857 177.068 26.6857C178.008 26.6857 178.204 26.5113 178.204 25.4771V24.4762C178.204 23.6174 178.106 23.5226 177.314 23.4117L176.59 23.316C176.409 23.2202 176.409 22.8553 176.59 22.7596C177.758 22.7918 178.565 22.8079 179.373 22.8079C180.18 22.8079 180.969 22.7928 181.53 22.7596C181.661 22.8553 181.661 23.2202 181.53 23.316L181.151 23.3795C180.656 23.4581 180.559 23.6174 180.559 24.4762V25.3662L180.557 25.3632L180.558 25.3622Z" fill="white"/>
    <path d="M186.122 24.5216C186.122 25.2695 186.187 25.7775 186.402 26.0305C186.617 26.3007 186.912 26.4277 188.114 26.4277C189.612 26.4277 190.073 26.3793 191.045 24.5367C191.176 24.3774 191.555 24.4409 191.67 24.6324C191.588 25.459 191.193 26.7785 190.962 27.2079C190.09 27.1756 188.509 27.1595 187.159 27.1595H184.952C184.195 27.1595 183.371 27.1746 182.351 27.2079C182.202 27.1121 182.17 26.7472 182.301 26.6515L182.927 26.5728C183.668 26.4771 183.767 26.3501 183.767 24.8723V18.9604C183.767 17.4817 183.668 17.3396 182.927 17.2438L182.45 17.1803C182.285 17.0846 182.285 16.7197 182.484 16.6239C183.34 16.6562 184.164 16.6723 184.953 16.6723C185.743 16.6723 186.566 16.6572 187.391 16.6239C187.522 16.7197 187.522 17.0846 187.391 17.1803L186.963 17.2438C186.222 17.3547 186.124 17.4817 186.124 18.9604V24.5236V24.5216H186.122Z" fill="white"/>
    <path d="M195.772 23.565C195.377 23.565 195.328 23.5801 195.228 23.8835L194.587 25.7281C194.488 26.0467 194.472 26.1727 194.472 26.2997C194.472 26.3954 194.687 26.4902 195.147 26.5698L195.642 26.6484C195.741 26.7593 195.773 27.1262 195.608 27.2049C195.031 27.1726 194.44 27.1726 193.747 27.1565C193.187 27.1565 192.81 27.2049 192.051 27.2049C191.869 27.1091 191.885 26.7754 192.001 26.6484L192.446 26.6001C192.841 26.5517 193.171 26.4257 193.451 25.8058C193.731 25.1697 194.042 24.4077 194.488 23.2626L195.986 19.3848C196.365 18.3839 196.645 17.8275 196.596 17.3658C197.386 17.1914 197.996 16.4122 198.028 16.4122C198.243 16.4122 198.342 16.4909 198.407 16.7308C198.538 17.1914 198.737 17.7801 199.148 18.909L201.387 25.1395C201.732 26.093 201.881 26.4589 202.489 26.5547L203.115 26.6505C203.214 26.7291 203.246 27.1111 203.099 27.2069C202.309 27.1746 201.419 27.1585 200.563 27.1585C199.707 27.1585 199.098 27.1736 198.341 27.2069C198.16 27.1111 198.126 26.7775 198.307 26.6505L198.833 26.5718C199.212 26.5083 199.278 26.3974 199.278 26.3017C199.278 26.1908 199.163 25.8088 198.964 25.2201L198.52 23.8533C198.438 23.5982 198.305 23.567 197.73 23.567H195.771L195.774 23.564L195.772 23.565ZM197.649 22.7233C198.028 22.7233 198.11 22.6749 197.979 22.2626L197.55 20.9754C197.319 20.293 197.024 19.4332 196.875 19.0996C196.744 19.4655 196.414 20.3233 196.167 21.0551L195.756 22.2475C195.607 22.6769 195.69 22.7253 196.102 22.7253H197.649V22.7223V22.7233Z" fill="white"/>
    <path d="M207.787 17.3981C205.875 17.3981 205.531 17.891 204.972 19.2256C204.757 19.3526 204.396 19.2891 204.297 19.1147C204.61 18.0029 204.774 17.143 204.938 16.3014C205.003 16.2379 205.234 16.2379 205.366 16.2862C205.465 16.6048 205.548 16.6683 206.766 16.6683H211.476C212.612 16.6683 213.122 16.6531 213.402 16.6199C213.484 16.6683 213.517 16.764 213.501 16.8578C213.237 17.1279 212.333 18.3204 211.032 20.2598L209.238 22.9461C207.576 25.4409 207.165 26.0295 207.165 26.2211C207.165 26.3481 207.345 26.4277 208.68 26.4277H210.211C211.824 26.4277 212.384 26.2211 213.289 24.4258C213.486 24.2988 213.815 24.3623 213.93 24.5367C213.831 25.4106 213.47 26.8097 213.206 27.2079C211.823 27.1756 210.917 27.1595 209.765 27.1595H205.616C204.744 27.1595 204.216 27.1746 203.954 27.2079C203.839 27.1595 203.789 27.0335 203.823 26.9377C204.069 26.6676 204.844 25.5225 205.338 24.8068L208.582 20.038C208.878 19.5935 209.668 18.4 209.965 17.8769C210.08 17.6702 210.129 17.5906 210.129 17.4948C210.129 17.4313 209.98 17.3991 209.569 17.3991H207.791L207.785 17.3971L207.787 17.3981Z" fill="white"/>
    <path d="M218.51 20.8C218.51 21.2446 218.526 21.2778 218.972 21.2778H220.108C220.963 21.2778 221.16 21.1669 221.325 20.4039L221.407 20.0067C221.522 19.8797 221.933 19.8797 222.017 20.0219C221.984 20.5299 221.967 21.1034 221.967 21.7072C221.967 22.311 221.984 22.8826 222.017 23.3926C221.935 23.5367 221.522 23.5519 221.407 23.4077L221.325 23.0106C221.16 22.2475 220.963 22.1205 220.108 22.1205H218.972C218.527 22.1205 218.51 22.1356 218.51 22.6134V24.5044C218.51 25.2352 218.575 25.7453 218.774 26.0134C218.989 26.2997 219.3 26.4277 220.502 26.4277C221.934 26.4277 222.494 26.3793 223.4 24.583C223.531 24.4087 223.944 24.4722 224.01 24.6617C223.944 25.4882 223.549 26.7754 223.318 27.2048C222.446 27.1726 220.865 27.1565 219.514 27.1565H217.373C216.583 27.1565 215.775 27.1716 214.54 27.2048C214.408 27.1091 214.408 26.7271 214.54 26.6484L215.315 26.5376C216.055 26.4267 216.154 26.3309 216.154 24.8693V18.9403C216.154 17.4938 216.055 17.398 215.315 17.2549L214.903 17.1763C214.754 17.0805 214.772 16.7156 214.937 16.6199C215.711 16.6521 216.518 16.6683 217.308 16.6683H220.798C221.851 16.6683 222.79 16.6531 223.005 16.6199C223.021 16.8749 223.136 18.018 223.219 19.0844C223.154 19.2588 222.775 19.2911 222.609 19.1479C222.429 18.5915 222.198 18.1147 221.983 17.892C221.67 17.5896 221.177 17.3991 220.371 17.3991H219.054C218.51 17.3991 218.51 17.4313 218.51 18.019V20.801H218.508L218.51 20.8Z" fill="white"/>
    <path d="M226.158 19.2427C226.158 17.653 226.125 17.4787 225.433 17.3829L224.989 17.3194C224.824 17.2408 224.824 16.8416 225.022 16.763C226.258 16.6844 227.541 16.6188 229.105 16.6188C230.505 16.6188 231.707 16.8255 232.333 17.1904C233.287 17.7307 233.781 18.525 233.781 19.543C233.781 20.9583 232.794 21.5621 232.035 21.9269C231.87 22.0056 231.87 22.1013 231.954 22.2757C233.04 24.4066 233.716 25.5971 234.506 26.2492C234.934 26.5829 235.362 26.6786 235.609 26.6938C235.758 26.7724 235.758 27.0123 235.674 27.1081C235.41 27.2189 234.884 27.2522 234.373 27.2522C232.858 27.2522 231.904 26.727 231.18 25.584C230.653 24.7423 230.273 23.9631 229.894 23.1194C229.696 22.69 229.434 22.563 229.023 22.563C228.446 22.563 228.413 22.5952 228.413 22.9118V24.8673C228.413 26.3299 228.511 26.4418 229.253 26.5678L229.698 26.6464C229.813 26.725 229.813 27.107 229.698 27.2028C228.826 27.1705 228.068 27.1544 227.279 27.1544C226.489 27.1544 225.731 27.1695 224.876 27.2028C224.745 27.107 224.745 26.725 224.876 26.6464L225.32 26.5678C226.061 26.4408 226.161 26.3299 226.161 24.8673V19.2406H226.159L226.158 19.2427ZM228.415 21.2607C228.415 21.8171 228.464 21.8644 229.436 21.8644C230.027 21.8644 230.375 21.7203 230.687 21.4199C230.967 21.1498 231.279 20.6418 231.279 19.7033C231.279 18.273 230.408 17.3506 229.122 17.3506C228.447 17.3506 228.415 17.399 228.415 18.1621V21.2607Z" fill="white"/>
    <path d="M238.461 17.9705C238.461 19.4493 237.226 20.3716 235.86 20.673C235.579 20.6407 235.514 20.291 235.695 20.1801C236.287 19.9734 237.095 19.4493 237.095 18.7013C237.095 18.034 236.585 17.8113 236.189 17.7155C235.909 17.6369 235.695 17.3819 235.695 17.016C235.695 16.4757 236.205 16.0302 236.831 16.0302C237.507 16.0302 238.461 16.5866 238.461 17.9685V17.9705Z" fill="white"/>
    <path d="M242.997 27.4115C241.482 27.4115 240.544 26.9972 240.198 26.8077C239.885 26.4589 239.672 25.3139 239.672 24.2323C239.787 24.0256 240.167 24.0095 240.298 24.1839C240.627 25.2171 241.73 26.6787 243.13 26.6787C244.348 26.6787 244.908 25.8672 244.908 25.0739C244.908 23.7867 243.657 23.0237 242.67 22.5469C241.484 21.9754 240.183 21.0208 240.183 19.4483C240.167 17.6521 241.615 16.4122 244.002 16.4122C244.547 16.4122 245.22 16.4757 245.879 16.6673C246.094 16.7308 246.241 16.763 246.44 16.7943C246.571 17.143 246.736 18.0028 246.736 19.0673C246.654 19.2578 246.241 19.2739 246.094 19.1157C245.814 18.3042 245.107 17.144 243.921 17.144C242.834 17.144 242.24 17.8265 242.24 18.6228C242.24 19.3536 242.916 20.0209 243.738 20.4351L244.825 20.9916C245.846 21.5167 247.146 22.438 247.146 24.1859C247.146 26.1414 245.484 27.4135 242.997 27.4135V27.4115Z" fill="white"/>
    <path d="M88.716 33.0815C88.337 33.1601 88.09 33.2881 87.9751 33.4302C87.7947 33.6853 87.5145 34.1933 87.0699 35.1942C86.2635 37.054 84.4683 41.0124 83.6619 43.0778C83.5631 43.1564 83.3323 43.2048 83.1176 43.2048C82.9371 43.2048 82.788 43.1574 82.673 43.0778C82.4926 42.6958 82.2457 42.1242 82.0471 41.6797L81.3556 40.1697C81.1248 39.6617 80.9111 39.1839 80.7629 38.946C80.6137 39.2161 80.4171 39.5982 80.2024 40.0427L79.4454 41.5849C79.1995 42.093 79.018 42.5546 78.754 43.0788C78.6723 43.1574 78.4425 43.2058 78.1935 43.2058C78.0131 43.2058 77.8972 43.1584 77.749 43.0788C77.4849 42.4115 76.8277 40.9811 76.2672 39.7877L73.5839 34.1762C73.1394 33.2387 73.0396 33.1601 72.4973 33.0472L72.0861 32.9686C71.955 32.8093 71.9711 32.4908 72.1516 32.4122C72.7614 32.4444 73.4519 32.4606 74.2926 32.4606C75.0173 32.4606 75.6594 32.4454 76.2844 32.4122C76.4154 32.4757 76.4809 32.8728 76.3186 32.9686L76.0223 33.017C75.7259 33.0654 75.611 33.144 75.611 33.2549C75.611 33.3657 75.9568 34.1137 76.4668 35.2265L78.0967 38.7394C78.5574 39.7252 78.8043 40.1697 79.0029 40.5517C79.1995 40.2332 79.5795 39.4873 79.8426 38.9148L80.0573 38.4541C80.1722 38.1991 80.2216 37.9934 80.2216 37.8977C80.2216 37.8019 80.1067 37.4683 80.0412 37.309L78.4606 33.9554C78.0816 33.1611 77.9657 33.0502 77.3407 32.9857L77.1764 32.9706C77.0111 32.8436 77.0454 32.4777 77.2258 32.4142C77.9334 32.4464 78.5765 32.4626 79.2993 32.4626C80.1389 32.4626 80.7649 32.4474 81.1923 32.4142C81.3889 32.4626 81.3737 32.892 81.2578 32.9706L80.9776 33.0341C80.781 33.0825 80.5331 33.145 80.5331 33.2569C80.5331 33.3839 80.5986 33.5583 80.6822 33.7347L81.1772 34.8314C81.3264 35.165 81.539 35.5944 81.6872 35.8807L82.1973 34.7991L82.3464 34.4806C82.6267 33.8768 82.8232 33.399 82.8232 33.3053C82.8232 33.1944 82.7577 33.146 82.4936 33.0825L81.9019 32.9716C81.787 32.8607 81.8031 32.4938 81.9513 32.4152C82.4281 32.4475 83.0218 32.4636 83.5641 32.4636C84.2062 32.4636 84.816 32.4485 85.2434 32.4152C85.3745 32.4938 85.4077 32.8758 85.2596 32.9867L84.7989 33.0825C84.2385 33.1934 84.1236 33.1934 83.547 34.1469C83.1518 34.7991 82.7406 35.5934 82.5259 36.0067C82.3767 36.293 82.164 36.7546 82.164 36.8332C82.164 36.8816 82.1801 36.9774 82.295 37.2304L83.0692 38.8361C83.4966 39.7101 83.7284 40.2191 83.8262 40.4409C84.6165 38.5962 85.5227 36.5782 86.3129 34.6398C86.4278 34.3697 86.7413 33.528 86.7413 33.3526C86.7413 33.1934 86.4772 33.1299 86.2645 33.0664L85.9027 32.9706C85.7716 32.8265 85.8039 32.4928 85.9521 32.4142C86.4782 32.4464 87.1536 32.4626 87.6485 32.4626C88.2251 32.4626 88.7009 32.4474 89.1635 32.4142C89.3127 32.4928 89.3278 32.8436 89.2129 32.9706L88.718 33.0815H88.713H88.716Z" fill="white"/>
    <path d="M93.6376 40.6313C93.6376 42.1252 93.7364 42.2371 94.4934 42.3631L94.954 42.4417C95.0851 42.5375 95.069 42.9024 94.9379 42.9981C94.0478 42.9659 93.2415 42.9497 92.4683 42.9497C91.6952 42.9497 90.8555 42.9649 89.9655 42.9981C89.8344 42.9024 89.8344 42.5375 89.9655 42.4417L90.4261 42.3631C91.1831 42.2361 91.2819 42.1252 91.2819 40.6313V34.7819C91.2819 33.2881 91.1831 33.1772 90.4261 33.0482L89.9655 32.9696C89.8344 32.8738 89.8344 32.5089 89.9655 32.4131C90.8555 32.4454 91.678 32.4615 92.4683 32.4615C93.2586 32.4615 94.065 32.4464 94.9551 32.4131C95.0861 32.5089 95.0861 32.8738 94.9551 32.9696L94.4944 33.0482C93.7374 33.1752 93.6386 33.2861 93.6386 34.7819V40.6313H93.6366H93.6376Z" fill="white"/>
    <path d="M106.628 40.2514C106.628 41.2856 106.628 42.2855 106.661 42.8097C106.546 42.9992 106.086 43.1756 105.691 43.1756C105.674 43.1756 105.13 42.3641 104.358 41.4438L100.555 36.8978C99.5993 35.7688 99.057 35.1015 98.7606 34.8626C98.679 35.0219 98.679 35.292 98.679 35.8787V38.9621C98.679 40.2493 98.7445 41.4418 98.9259 41.8712C99.0751 42.2049 99.4521 42.3157 99.8805 42.3792L100.341 42.4427C100.472 42.5698 100.44 42.9034 100.341 42.9992C99.4511 42.9669 98.7939 42.9518 98.1347 42.9518C97.5248 42.9518 96.917 42.9669 96.2921 42.9992C96.1933 42.9034 96.161 42.5698 96.2921 42.4427L96.5723 42.3954C97.0168 42.3167 97.3464 42.2038 97.4775 41.8702C97.6589 41.4408 97.7083 40.2493 97.7083 38.9611V34.9241C97.7083 34.0502 97.6922 33.7951 97.5934 33.5724C97.4623 33.3022 97.2315 33.1117 96.6559 33.0321L96.1953 32.9686C96.0804 32.8416 96.0965 32.4606 96.2608 32.4122C97.0349 32.4444 97.8575 32.4606 98.5328 32.4606C99.0933 32.4606 99.5701 32.4454 99.9158 32.4122C100.08 33.1278 101.152 34.3354 102.632 36.0369L104.015 37.6114C104.74 38.438 105.217 38.9944 105.596 39.3603C105.661 39.201 105.661 38.9309 105.661 38.6446V36.4512C105.661 35.164 105.596 33.9715 105.414 33.5421C105.265 33.2085 104.904 33.0976 104.459 33.0341L104.014 32.9706C103.883 32.8436 103.916 32.5099 104.014 32.4142C104.904 32.4464 105.545 32.4626 106.221 32.4626C106.831 32.4626 107.422 32.4474 108.064 32.4142C108.163 32.5099 108.195 32.8436 108.064 32.9706L107.768 33.019C107.341 33.0825 107.027 33.2095 106.878 33.5441C106.698 33.9736 106.631 35.165 106.631 36.4532V40.2524H106.628V40.2514Z" fill="white"/>
    <path d="M112.891 36.5953C112.891 37.0399 112.907 37.0731 113.352 37.0731H114.488C115.343 37.0731 115.541 36.9622 115.705 36.1992L115.787 35.802C115.902 35.675 116.313 35.675 116.397 35.8172C116.363 36.3252 116.347 36.8987 116.347 37.5025C116.347 38.1063 116.364 38.6778 116.397 39.1879C116.315 39.331 115.902 39.3472 115.787 39.203L115.705 38.8059C115.541 38.0428 115.343 37.9158 114.488 37.9158H113.352C112.907 37.9158 112.891 37.9309 112.891 38.4087V40.2997C112.891 41.0305 112.957 41.5406 113.155 41.8087C113.37 42.0939 113.681 42.223 114.883 42.223C116.315 42.223 116.876 42.1756 117.781 40.3783C117.912 40.204 118.325 40.2675 118.391 40.457C118.325 41.2835 117.93 42.5707 117.699 43.0001C116.827 42.9679 115.246 42.9518 113.896 42.9518H111.755C110.965 42.9518 110.158 42.9669 108.922 43.0001C108.791 42.9044 108.791 42.5223 108.922 42.4437L109.697 42.3328C110.438 42.221 110.536 42.1252 110.536 40.6646V34.7356C110.536 33.2891 110.438 33.1933 109.697 33.0502L109.285 32.9716C109.136 32.8758 109.154 32.5109 109.319 32.4152C110.093 32.4474 110.9 32.4635 111.69 32.4635H115.18C116.232 32.4635 117.172 32.4484 117.387 32.4152C117.403 32.6702 117.518 33.8133 117.601 34.8797C117.536 35.0541 117.157 35.0864 116.992 34.9432C116.811 34.3868 116.58 33.91 116.367 33.6873C116.054 33.3849 115.56 33.1943 114.754 33.1943H113.437C112.893 33.1943 112.893 33.2266 112.893 33.8143V36.5963H112.891V36.5953Z" fill="white"/>
    <path d="M130.753 34.913C130.753 36.0581 129.716 36.5348 129.238 36.8211C130.11 37.2656 130.984 38.1557 131.692 39.0458C132.053 38.442 132.283 37.9964 132.563 37.3604C132.794 36.8524 132.975 36.3907 132.975 36.2486C132.975 36.1064 132.809 36.0107 132.53 35.9623L132.234 35.9139C132.085 35.8182 132.103 35.421 132.283 35.3575H132.959C134.226 35.3575 135.346 35.294 136.202 35.2617C136.383 35.3252 136.417 35.7224 136.237 35.8182L135.792 35.8817C135.248 35.9603 134.886 36.2002 134.689 36.3595C134.327 36.6296 133.932 37.2646 133.453 37.9491L132.467 39.3955C132.385 39.5064 132.27 39.6657 132.236 39.8098H132.269C132.269 39.7463 132.302 39.8885 132.549 40.2705C133.126 41.0013 133.554 41.9387 134.987 41.9387C135.579 41.9387 136.222 41.6686 136.468 41.5093C136.599 41.5567 136.699 41.7643 136.665 41.9065C136.254 42.3843 135.134 43.1775 133.389 43.1775C132.237 43.1775 131.561 42.8288 131.347 42.4941C131.232 42.3046 130.968 41.969 130.802 41.6202C129.896 42.4467 129.008 43.1775 127.477 43.1775C125.288 43.1775 123.953 41.97 123.953 40.332C123.953 38.4873 125.65 37.567 126.505 37.2163C125.914 36.7717 125.435 36.0712 125.435 35.3081C125.435 33.7034 126.851 32.7811 128.184 32.7811C129.781 32.7811 130.752 33.7185 130.752 34.912V34.915L130.753 34.913ZM128.366 41.8913C129.601 41.8913 130.358 40.9378 130.358 40.8904C130.358 40.843 130.292 40.7634 130.094 40.4297C129.435 39.3482 128.332 38.4742 127.64 38.0458C127.444 37.9188 127.329 37.8231 127.245 37.8231C127.162 37.8231 126.143 38.4601 126.143 39.7312C126.143 41.0829 127.164 41.8923 128.365 41.8923V41.8903L128.366 41.8913ZM128.219 33.4816C127.659 33.4816 127.232 33.9745 127.232 34.6418C127.232 35.7708 128.368 36.3101 128.499 36.3423C128.664 36.2788 129.207 35.6115 129.207 34.6892C129.207 34.1005 128.893 33.4806 128.22 33.4806L128.219 33.4816Z" fill="white"/>
    <path d="M144.93 43.2098C143.415 43.2098 142.476 42.7976 142.132 42.606C141.818 42.2573 141.605 41.1122 141.605 40.0306C141.72 39.824 142.099 39.8078 142.231 39.9832C142.561 41.0164 143.664 42.478 145.064 42.478C146.282 42.478 146.842 41.6666 146.842 40.8723C146.842 39.5851 145.59 38.822 144.603 38.3452C143.418 37.7737 142.117 36.8191 142.117 35.2467C142.1 33.4504 143.549 32.2106 145.936 32.2106C146.48 32.2106 147.153 32.2741 147.813 32.4656C148.027 32.5291 148.175 32.5614 148.373 32.5926C148.504 32.9414 148.67 33.8002 148.67 34.8656C148.588 35.0551 148.176 35.0723 148.028 34.914C147.748 34.1026 147.042 32.9424 145.855 32.9424C144.769 32.9424 144.175 33.6248 144.175 34.4211C144.175 35.1519 144.85 35.8192 145.673 36.2335L146.759 36.7899C147.78 37.3151 149.081 38.2364 149.081 39.9853C149.081 41.9408 147.419 43.2129 144.932 43.2129L144.93 43.2098Z" fill="white"/>
    <path d="M151.381 35.038C151.381 33.4333 151.347 33.2418 150.656 33.1621L150.146 33.0986C149.997 33.02 149.997 32.6692 150.179 32.5583C151.266 32.4797 152.551 32.4142 153.983 32.4142C155.414 32.4142 156.304 32.5734 156.997 32.8285C158.002 33.1944 159.004 34.0371 159.004 35.5783C159.004 38.185 156.287 38.566 155.415 38.566C155.218 38.566 155.069 38.566 154.889 38.5509C154.758 38.4722 154.725 38.2172 154.839 38.1215C156.206 37.7092 156.485 36.7697 156.485 35.5944C156.485 34.4191 155.861 33.147 154.378 33.147C153.768 33.147 153.737 33.3214 153.737 33.9584V40.6667C153.737 42.1454 153.835 42.2714 154.576 42.3833L155.103 42.4619C155.283 42.5405 155.283 42.9064 155.103 43.0022C154.18 42.9699 153.374 42.9538 152.584 42.9538C151.793 42.9538 151.003 42.9689 150.115 43.0022C149.934 42.9064 149.9 42.5415 150.081 42.4619L150.541 42.3833C151.282 42.2563 151.382 42.1454 151.382 40.6667V35.04L151.38 35.038H151.381Z" fill="white"/>
    <path d="M163.266 40.6313C163.266 42.1252 163.365 42.2371 164.122 42.3631L164.583 42.4417C164.714 42.5375 164.698 42.9024 164.567 42.9981C163.677 42.9659 162.87 42.9497 162.097 42.9497C161.324 42.9497 160.484 42.9649 159.594 42.9981C159.463 42.9024 159.463 42.5375 159.594 42.4417L160.055 42.3631C160.812 42.2361 160.911 42.1252 160.911 40.6313V34.7819C160.911 33.2881 160.812 33.1772 160.055 33.0482L159.594 32.9696C159.463 32.8738 159.463 32.5089 159.594 32.4131C160.484 32.4454 161.307 32.4615 162.097 32.4615C162.887 32.4615 163.694 32.4464 164.584 32.4131C164.715 32.5089 164.715 32.8738 164.584 32.9696L164.123 33.0482C163.366 33.1752 163.268 33.2861 163.268 34.7819V40.6313H163.265H163.266Z" fill="white"/>
    <path d="M167.237 35.038C167.237 33.4484 167.204 33.274 166.512 33.1782L166.068 33.1147C165.902 33.0361 165.902 32.637 166.101 32.5583C167.337 32.4797 168.62 32.4142 170.184 32.4142C171.584 32.4142 172.786 32.6208 173.412 32.9857C174.367 33.526 174.86 34.3203 174.86 35.3384C174.86 36.7536 173.874 37.3574 173.115 37.7223C172.95 37.8009 172.95 37.8967 173.033 38.0711C174.12 40.201 174.795 41.3924 175.585 42.0446C176.014 42.3782 176.441 42.474 176.688 42.4891C176.837 42.5677 176.837 42.8076 176.753 42.9014C176.489 43.0123 175.963 43.0445 175.453 43.0445C173.938 43.0445 172.984 42.5214 172.259 41.3763C171.733 40.5346 171.353 39.7554 170.974 38.9127C170.775 38.4833 170.513 38.3563 170.102 38.3563C169.525 38.3563 169.492 38.3886 169.492 38.7051V40.6606C169.492 42.1232 169.591 42.2351 170.331 42.3621L170.776 42.4407C170.891 42.5194 170.891 42.9014 170.776 42.9971C169.904 42.9649 169.145 42.9488 168.357 42.9488C167.569 42.9488 166.81 42.9639 165.954 42.9971C165.823 42.9014 165.823 42.5194 165.954 42.4407L166.398 42.3621C167.139 42.2351 167.238 42.1242 167.238 40.6606V35.034L167.236 35.036L167.237 35.038ZM169.492 37.057C169.492 37.6134 169.541 37.6608 170.513 37.6608C171.106 37.6608 171.452 37.5167 171.765 37.2163C172.045 36.9461 172.357 36.4381 172.357 35.4997C172.357 34.0693 171.485 33.147 170.199 33.147C169.524 33.147 169.492 33.1954 169.492 33.9584V37.057Z" fill="white"/>
    <path d="M181.329 40.6313C181.329 42.1252 181.428 42.2371 182.185 42.3631L182.645 42.4417C182.776 42.5375 182.76 42.9024 182.629 42.9981C181.739 42.9659 180.933 42.9497 180.16 42.9497C179.387 42.9497 178.547 42.9649 177.657 42.9981C177.526 42.9024 177.526 42.5375 177.657 42.4417L178.118 42.3631C178.875 42.2361 178.973 42.1252 178.973 40.6313V34.7819C178.973 33.2881 178.875 33.1772 178.118 33.0482L177.657 32.9696C177.526 32.8738 177.526 32.5089 177.657 32.4131C178.547 32.4454 179.369 32.4615 180.16 32.4615C180.95 32.4615 181.756 32.4464 182.646 32.4131C182.777 32.5089 182.777 32.8738 182.646 32.9696L182.186 33.0482C181.429 33.1752 181.33 33.2861 181.33 34.7819V40.6313H181.328H181.329Z" fill="white"/>
    <path d="M187.607 33.655C187.607 33.2729 187.607 33.1943 187.212 33.1943H186.191C184.99 33.1943 184.644 33.8304 184.149 34.9906C183.952 35.0863 183.639 35.0541 183.539 34.8464C183.885 33.7497 183.966 32.7639 184.083 32.144C184.149 32.0956 184.232 32.0654 184.314 32.0654C184.397 32.0654 184.479 32.0805 184.545 32.1289C184.627 32.399 184.676 32.4625 185.927 32.4625H192.053C193.139 32.4625 193.385 32.4474 193.534 32.1138C193.6 32.0815 193.649 32.0654 193.749 32.0654C193.849 32.0654 193.964 32.1289 193.995 32.1762C193.831 32.7165 193.715 34.0037 193.749 34.9109C193.667 35.0551 193.223 35.0853 193.139 34.9593C192.859 33.9433 192.628 33.1953 191.393 33.1953H190.407C190.011 33.1953 189.962 33.2437 189.962 33.656V40.6656C189.962 42.1443 190.061 42.2703 190.802 42.3661L191.461 42.4447C191.576 42.5405 191.576 42.9054 191.461 43.0011C190.39 42.9689 189.568 42.9527 188.827 42.9527C188.037 42.9527 187.181 42.9679 186.028 43.0011C185.897 42.9054 185.897 42.5405 186.028 42.4447L186.769 42.3661C187.51 42.2875 187.608 42.1433 187.608 40.6656V33.656L187.606 33.654L187.607 33.655Z" fill="white"/>
    <path d="M197.857 43.2098C196.342 43.2098 195.403 42.7976 195.057 42.606C194.744 42.2573 194.531 41.1122 194.531 40.0306C194.646 39.824 195.026 39.8078 195.157 39.9832C195.487 41.0164 196.59 42.478 197.99 42.478C199.207 42.478 199.768 41.6666 199.768 40.8723C199.768 39.5851 198.517 38.822 197.529 38.3452C196.344 37.7737 195.042 36.8191 195.042 35.2467C195.026 33.4504 196.475 32.2106 198.862 32.2106C199.406 32.2106 200.079 32.2741 200.738 32.4656C200.953 32.5291 201.1 32.5614 201.299 32.5926C201.43 32.9414 201.594 33.8002 201.594 34.8656C201.513 35.0551 201.1 35.0723 200.953 34.914C200.673 34.1026 199.966 32.9424 198.78 32.9424C197.693 32.9424 197.1 33.6248 197.1 34.4211C197.1 35.1519 197.775 35.8192 198.598 36.2335L199.684 36.7899C200.705 37.3151 202.006 38.2364 202.006 39.9853C202.006 41.9408 200.343 43.2129 197.857 43.2129V43.2098Z" fill="white"/>
    <path d="M251.999 18.0643C251.999 18.9755 251.219 19.7174 250.248 19.7174C249.277 19.7174 248.496 18.9755 248.496 18.0643C248.496 17.1531 249.276 16.4112 250.248 16.4112C251.22 16.4112 251.999 17.1531 251.999 18.0643ZM248.913 18.0643C248.913 18.8183 249.52 19.4322 250.248 19.4322C250.976 19.4322 251.583 18.8203 251.583 18.0643C251.583 17.3083 250.975 16.6965 250.248 16.6965C249.521 16.6965 248.913 17.2952 248.913 18.0643ZM249.68 17.6863C249.68 17.517 249.64 17.4383 249.532 17.4262H249.479C249.452 17.3748 249.452 17.2962 249.492 17.2841C249.774 17.272 250.018 17.2569 250.247 17.2569C250.544 17.2569 250.92 17.3234 250.92 17.6994C250.92 17.8809 250.785 18.0109 250.678 18.0633C250.65 18.0754 250.65 18.1026 250.678 18.154C250.813 18.4272 250.92 18.6106 251.016 18.6752C251.07 18.7145 251.098 18.7417 251.138 18.7538C251.165 18.7538 251.165 18.8324 251.138 18.8445C251.07 18.8566 251.016 18.8566 250.95 18.8566C250.734 18.8566 250.573 18.778 250.451 18.5834L250.262 18.2568C250.235 18.2054 250.194 18.1782 250.14 18.1782C250.074 18.1782 250.058 18.2175 250.058 18.2427V18.4242C250.058 18.6207 250.059 18.6721 250.247 18.6973L250.287 18.7094C250.315 18.7215 250.315 18.8274 250.287 18.8395C250.152 18.8395 250.045 18.8274 249.883 18.8274C249.735 18.8274 249.614 18.8395 249.492 18.8395C249.452 18.8274 249.452 18.7215 249.479 18.7094L249.532 18.6973C249.68 18.658 249.68 18.6328 249.68 18.4242V17.6863ZM250.057 17.9343C250.057 18.025 250.071 18.025 250.22 18.025C250.435 18.025 250.489 17.8677 250.489 17.7649C250.489 17.5563 250.382 17.4383 250.232 17.4383C250.07 17.4383 250.056 17.4656 250.056 17.5412V17.9333L250.057 17.9343Z" fill="white"/>
  </g>
  <defs>
    <clipPath id="clip0_19930_13">
      <rect width="251.999" height="60" fill="white" transform="translate(0 -0.380005)"/>
    </clipPath>
  </defs>
</svg>